<svg viewBox="335 289.7948 380 171.4104" width="5000" height="2255.4" xmlns="http://www.w3.org/2000/svg" xmlns:xlink="http://www.w3.org/1999/xlink" preserveAspectRatio="none"><defs></defs><style>.aD6z1nYkhcolor {fill:#FFFFFF;fill-opacity:1;}.aD6z1nYkhstrokeColor-str {stroke:#D9D9D9;stroke-opacity:1;}.aLgOaV3zRcolors-0 {fill:#FFFFFF;fill-opacity:1;}.aLgOaV3zRcolors-1 {fill:#D9D9D9;fill-opacity:1;}.aLgOaV3zRcolors-2 {fill:#B4B4B4;fill-opacity:1;}.aLgOaV3zRcolors-3 {fill:#A6A6A6;fill-opacity:1;}.aLgOaV3zRcolors-4 {fill:#949494;fill-opacity:1;}.aLgOaV3zRcolors-5 {fill:#848383;fill-opacity:1;}.aLgOaV3zRcolors-6 {fill:#717171;fill-opacity:1;}.aLgOaV3zRcolors-7 {fill:#636363;fill-opacity:1;}</style><g opacity="1" transform="rotate(0 335 423.2798)">
<svg width="380" height="37.9254" x="335" y="423.2798" version="1.1" preserveAspectRatio="none" viewBox="4 -31.24 408 40.72">
  <g transform="matrix(1 0 0 1 0 0)" class="aD6z1nYkhcolor"><path id="id-D6z1nYkh19" d="M34.08-31.24Q34.60-31.24 34.92-30.90Q35.24-30.56 35.24-30.04L35.24-30.04L35.24-1.20Q35.24-0.68 34.92-0.34Q34.60 0 34.08 0L34.08 0Q33.56 0 33.20-0.34Q32.84-0.68 32.84-1.20L32.84-1.20L32.84-25.72L20.68-0.96Q20.40-0.40 19.64-0.40L19.64-0.40Q18.92-0.40 18.52-1.16L18.52-1.16L6.40-25.36L6.40-1.20Q6.40-0.68 6.06-0.34Q5.72 0 5.20 0L5.20 0Q4.68 0 4.34-0.34Q4-0.68 4-1.20L4-1.20L4-30.04Q4-30.56 4.34-30.90Q4.68-31.24 5.20-31.24L5.20-31.24Q6-31.24 6.28-30.64L6.28-30.64L19.72-4.08L33-30.64Q33.36-31.24 34.08-31.24L34.08-31.24Z M62.24-21.84Q63-21.52 63-20.92L63-20.92Q63-20.76 62.84-20.36L62.84-20.36L49.40 8.76Q49.04 9.48 48.48 9.48L48.48 9.48Q48.24 9.48 47.92 9.36L47.92 9.36Q47.16 9.04 47.16 8.44L47.16 8.44Q47.16 8.28 47.32 7.88L47.32 7.88L51.32-0.76Q51.28-0.80 51.16-1.04L51.16-1.04L42.40-20.24Q42.24-20.56 42.24-20.88L42.24-20.88Q42.24-21.48 42.92-21.80L42.92-21.80Q43.24-21.96 43.56-21.96L43.56-21.96Q44.16-21.96 44.48-21.28L44.48-21.28L52.60-3.52L60.76-21.24Q61.12-21.96 61.68-21.96L61.68-21.96Q61.96-21.96 62.24-21.84L62.24-21.84Z M101.96-2.16Q102.48-2.16 102.82-1.86Q103.16-1.56 103.16-1.08L103.16-1.08Q103.16-0.60 102.82-0.30Q102.48 0 101.96 0L101.96 0L84.32 0Q83.84 0 83.48-0.34Q83.12-0.68 83.12-1.20L83.12-1.20L83.12-30.04Q83.12-30.56 83.48-30.90Q83.84-31.24 84.32-31.24L84.32-31.24Q84.84-31.24 85.18-30.90Q85.52-30.56 85.52-30.04L85.52-30.04L85.52-2.16L101.96-2.16Z M110.56-20.68Q110.56-21.24 110.90-21.56Q111.24-21.88 111.76-21.88L111.76-21.88Q112.32-21.88 112.64-21.56Q112.96-21.24 112.96-20.68L112.96-20.68L112.96-1.20Q112.96-0.68 112.64-0.34Q112.32 0 111.76 0L111.76 0Q111.24 0 110.90-0.34Q110.56-0.68 110.56-1.20L110.56-1.20L110.56-20.68ZM111.76-30.20Q112.52-30.20 113.06-29.72Q113.60-29.24 113.60-28.36L113.60-28.36Q113.60-27.56 113.06-27.02Q112.52-26.48 111.72-26.48L111.72-26.48Q110.92-26.48 110.40-27.02Q109.88-27.56 109.88-28.36L109.88-28.36Q109.88-29.24 110.44-29.72Q111-30.20 111.76-30.20L111.76-30.20Z M132.84-2.44Q133.40-2.44 133.74-2.10Q134.08-1.76 134.08-1.20L134.08-1.20Q134.08-0.68 133.74-0.34Q133.40 0 132.84 0L132.84 0L131.92 0Q129.72 0 128-1Q126.28-2 125.32-3.74Q124.36-5.48 124.36-7.68L124.36-7.68L124.36-18.92L121.24-18.92Q120.76-18.92 120.46-19.22Q120.16-19.52 120.16-20L120.16-20Q120.16-20.48 120.46-20.78Q120.76-21.08 121.24-21.08L121.24-21.08L124.36-21.08L124.36-27.60Q124.36-28.16 124.70-28.50Q125.04-28.84 125.56-28.84L125.56-28.84Q126.12-28.84 126.46-28.50Q126.80-28.16 126.80-27.60L126.80-27.60L126.80-21.08L132.08-21.08Q132.56-21.08 132.86-20.78Q133.16-20.48 133.16-20L133.16-20Q133.16-19.52 132.86-19.22Q132.56-18.92 132.08-18.92L132.08-18.92L126.80-18.92L126.80-7.68Q126.80-5.36 128.24-3.90Q129.68-2.44 131.96-2.44L131.96-2.44L132.84-2.44Z M150.96-2.44Q151.52-2.44 151.86-2.10Q152.20-1.76 152.20-1.20L152.20-1.20Q152.20-0.68 151.86-0.34Q151.52 0 150.96 0L150.96 0L150.04 0Q147.84 0 146.12-1Q144.40-2 143.44-3.74Q142.48-5.48 142.48-7.68L142.48-7.68L142.48-18.92L139.36-18.92Q138.88-18.92 138.58-19.22Q138.28-19.52 138.28-20L138.28-20Q138.28-20.48 138.58-20.78Q138.88-21.08 139.36-21.08L139.36-21.08L142.48-21.08L142.48-27.60Q142.48-28.16 142.82-28.50Q143.16-28.84 143.68-28.84L143.68-28.84Q144.24-28.84 144.58-28.50Q144.92-28.16 144.92-27.60L144.92-27.60L144.92-21.08L150.20-21.08Q150.68-21.08 150.98-20.78Q151.28-20.48 151.28-20L151.28-20Q151.28-19.52 150.98-19.22Q150.68-18.92 150.20-18.92L150.20-18.92L144.92-18.92L144.92-7.68Q144.92-5.36 146.36-3.90Q147.80-2.44 150.08-2.44L150.08-2.44L150.96-2.44Z M158.40-30.04Q158.40-30.60 158.74-30.92Q159.08-31.24 159.60-31.24L159.60-31.24Q160.16-31.24 160.48-30.92Q160.80-30.60 160.80-30.04L160.80-30.04L160.80-6.60Q160.80-4.76 161.58-3.58Q162.36-2.40 163.60-2.40L163.60-2.40L164.60-2.40Q165.04-2.40 165.32-2.08Q165.60-1.76 165.60-1.20L165.60-1.20Q165.60-0.68 165.28-0.34Q164.96 0 164.40 0L164.40 0L163.60 0Q161.32 0 159.86-1.84Q158.40-3.68 158.40-6.60L158.40-6.60L158.40-30.04Z M179.88-22.08Q182.80-22.08 185.10-20.70Q187.40-19.32 188.68-16.88Q189.96-14.44 189.96-11.32L189.96-11.32Q189.96-10.80 189.64-10.50Q189.32-10.20 188.80-10.20L188.80-10.20L172.04-10.20Q172.16-7.84 173.28-5.98Q174.40-4.12 176.28-3.08Q178.16-2.04 180.48-2.04L180.48-2.04Q182.04-2.04 183.62-2.58Q185.20-3.12 186.12-4L186.12-4Q186.52-4.32 186.96-4.32L186.96-4.32Q187.40-4.32 187.68-4.08L187.68-4.08Q188.12-3.72 188.12-3.24L188.12-3.24Q188.12-2.84 187.76-2.48L187.76-2.48Q186.48-1.32 184.42-0.56Q182.36 0.20 180.48 0.20L180.48 0.20Q177.32 0.20 174.86-1.22Q172.40-2.64 171.00-5.18Q169.60-7.72 169.60-10.92L169.60-10.92Q169.60-14.16 170.90-16.70Q172.20-19.24 174.54-20.66Q176.88-22.08 179.88-22.08L179.88-22.08ZM179.88-19.84Q176.76-19.84 174.62-17.76Q172.48-15.68 172.08-12.28L172.08-12.28L187.64-12.28Q187.36-15.68 185.24-17.76Q183.12-19.84 179.88-19.84L179.88-19.84Z M233.52-31.24Q234-31.24 234.28-30.92Q234.56-30.60 234.56-30.08L234.56-30.08Q234.56-29.64 234.40-29.28L234.40-29.28L222.44-0.76Q222.08 0 221.36 0L221.36 0Q220.96 0 220.70-0.18Q220.44-0.36 220.28-0.76L220.28-0.76L208.28-29.28Q208.08-29.80 208.08-30.12L208.08-30.12Q208.08-30.64 208.44-30.94Q208.80-31.24 209.32-31.24L209.32-31.24Q209.72-31.24 210-31.04Q210.28-30.84 210.48-30.40L210.48-30.40L221.40-4.24L232.20-30.24Q232.40-30.76 232.72-31Q233.04-31.24 233.52-31.24L233.52-31.24Z M246.56-22.12Q249.68-22.12 252.24-20.66Q254.80-19.20 256.26-16.64Q257.72-14.08 257.72-10.92L257.72-10.92L257.72-1.20Q257.72-0.68 257.40-0.34Q257.08 0 256.52 0L256.52 0Q256 0 255.66-0.34Q255.32-0.68 255.32-1.20L255.32-1.20L255.32-4.32Q254-2.20 251.70-0.98Q249.40 0.24 246.56 0.24L246.56 0.24Q243.40 0.24 240.84-1.22Q238.28-2.68 236.82-5.24Q235.36-7.80 235.36-10.92L235.36-10.92Q235.36-14.08 236.82-16.64Q238.28-19.20 240.84-20.66Q243.40-22.12 246.56-22.12L246.56-22.12ZM246.56-2Q249.04-2 251.04-3.16Q253.04-4.32 254.18-6.36Q255.32-8.40 255.32-10.92L255.32-10.92Q255.32-13.44 254.18-15.48Q253.04-17.52 251.04-18.70Q249.04-19.88 246.56-19.88L246.56-19.88Q244.08-19.88 242.08-18.70Q240.08-17.52 238.92-15.48Q237.76-13.44 237.76-10.92L237.76-10.92Q237.76-8.40 238.92-6.36Q240.08-4.32 242.08-3.16Q244.08-2 246.56-2L246.56-2Z M264.92-30.04Q264.92-30.60 265.26-30.92Q265.60-31.24 266.12-31.24L266.12-31.24Q266.68-31.24 267-30.92Q267.32-30.60 267.32-30.04L267.32-30.04L267.32-6.60Q267.32-4.76 268.10-3.58Q268.88-2.40 270.12-2.40L270.12-2.40L271.12-2.40Q271.56-2.40 271.84-2.08Q272.12-1.76 272.12-1.20L272.12-1.20Q272.12-0.68 271.80-0.34Q271.48 0 270.92 0L270.92 0L270.12 0Q267.84 0 266.38-1.84Q264.92-3.68 264.92-6.60L264.92-6.60L264.92-30.04Z M286.40-22.08Q289.32-22.08 291.62-20.70Q293.92-19.32 295.20-16.88Q296.48-14.44 296.48-11.32L296.48-11.32Q296.48-10.80 296.16-10.50Q295.84-10.20 295.32-10.20L295.32-10.20L278.56-10.20Q278.68-7.84 279.80-5.98Q280.92-4.12 282.80-3.08Q284.68-2.04 287-2.04L287-2.04Q288.56-2.04 290.14-2.58Q291.72-3.12 292.64-4L292.64-4Q293.04-4.32 293.48-4.32L293.48-4.32Q293.92-4.32 294.20-4.08L294.20-4.08Q294.64-3.72 294.64-3.24L294.64-3.24Q294.64-2.84 294.28-2.48L294.28-2.48Q293-1.32 290.94-0.56Q288.88 0.20 287 0.20L287 0.20Q283.84 0.20 281.38-1.22Q278.92-2.64 277.52-5.18Q276.12-7.72 276.12-10.92L276.12-10.92Q276.12-14.16 277.42-16.70Q278.72-19.24 281.06-20.66Q283.40-22.08 286.40-22.08L286.40-22.08ZM286.40-19.84Q283.28-19.84 281.14-17.76Q279-15.68 278.60-12.28L278.60-12.28L294.16-12.28Q293.88-15.68 291.76-17.76Q289.64-19.84 286.40-19.84L286.40-19.84Z M313.68-22.16Q316.60-22.16 318.90-20.96Q321.20-19.76 322.50-17.46Q323.80-15.16 323.80-11.96L323.80-11.96L323.80-1.20Q323.80-0.68 323.46-0.34Q323.12 0 322.60 0L322.60 0Q322.08 0 321.74-0.34Q321.40-0.68 321.40-1.20L321.40-1.20L321.40-11.96Q321.40-15.76 319.26-17.76Q317.12-19.76 313.68-19.76L313.68-19.76Q311.56-19.76 309.82-18.94Q308.08-18.12 307.08-16.66Q306.08-15.20 306.08-13.44L306.08-13.44L306.08-1.20Q306.08-0.68 305.76-0.34Q305.44 0 304.88 0L304.88 0Q304.36 0 304.02-0.34Q303.68-0.68 303.68-1.20L303.68-1.20L303.68-20.68Q303.68-21.24 304.02-21.56Q304.36-21.88 304.88-21.88L304.88-21.88Q305.44-21.88 305.76-21.56Q306.08-21.24 306.08-20.68L306.08-20.68L306.08-18.60Q307.44-20.28 309.40-21.22Q311.36-22.16 313.68-22.16L313.68-22.16Z M342.48-2.44Q343.04-2.44 343.38-2.10Q343.72-1.76 343.72-1.20L343.72-1.20Q343.72-0.68 343.38-0.34Q343.04 0 342.48 0L342.48 0L341.56 0Q339.36 0 337.64-1Q335.92-2 334.96-3.74Q334.00-5.48 334.00-7.68L334.00-7.68L334.00-18.92L330.88-18.92Q330.40-18.92 330.10-19.22Q329.80-19.52 329.80-20L329.80-20Q329.80-20.48 330.10-20.78Q330.40-21.08 330.88-21.08L330.88-21.08L334.00-21.08L334.00-27.60Q334.00-28.16 334.34-28.50Q334.68-28.84 335.20-28.84L335.20-28.84Q335.76-28.84 336.10-28.50Q336.44-28.16 336.44-27.60L336.44-27.60L336.44-21.08L341.72-21.08Q342.20-21.08 342.50-20.78Q342.80-20.48 342.80-20L342.80-20Q342.80-19.52 342.50-19.22Q342.20-18.92 341.72-18.92L341.72-18.92L336.44-18.92L336.44-7.68Q336.44-5.36 337.88-3.90Q339.32-2.44 341.60-2.44L341.60-2.44L342.48-2.44Z M351.52-20.68Q351.52-21.24 351.86-21.56Q352.20-21.88 352.72-21.88L352.72-21.88Q353.28-21.88 353.60-21.56Q353.92-21.24 353.92-20.68L353.92-20.68L353.92-1.20Q353.92-0.68 353.60-0.34Q353.28 0 352.72 0L352.72 0Q352.20 0 351.86-0.34Q351.52-0.68 351.52-1.20L351.52-1.20L351.52-20.68ZM352.72-30.20Q353.48-30.20 354.02-29.72Q354.56-29.24 354.56-28.36L354.56-28.36Q354.56-27.56 354.02-27.02Q353.48-26.48 352.68-26.48L352.68-26.48Q351.88-26.48 351.36-27.02Q350.84-27.56 350.84-28.36L350.84-28.36Q350.84-29.24 351.40-29.72Q351.96-30.20 352.72-30.20L352.72-30.20Z M373.92-22.16Q376.84-22.16 379.14-20.96Q381.44-19.76 382.74-17.46Q384.04-15.16 384.04-11.96L384.04-11.96L384.04-1.20Q384.04-0.68 383.70-0.34Q383.36 0 382.84 0L382.84 0Q382.32 0 381.98-0.34Q381.64-0.68 381.64-1.20L381.64-1.20L381.64-11.96Q381.64-15.76 379.50-17.76Q377.36-19.76 373.92-19.76L373.92-19.76Q371.80-19.76 370.06-18.94Q368.32-18.12 367.32-16.66Q366.32-15.20 366.32-13.44L366.32-13.44L366.32-1.20Q366.32-0.68 366.00-0.34Q365.68 0 365.12 0L365.12 0Q364.60 0 364.26-0.34Q363.92-0.68 363.92-1.20L363.92-1.20L363.92-20.68Q363.92-21.24 364.26-21.56Q364.60-21.88 365.12-21.88L365.12-21.88Q365.68-21.88 366.00-21.56Q366.32-21.24 366.32-20.68L366.32-20.68L366.32-18.60Q367.68-20.28 369.64-21.22Q371.60-22.16 373.92-22.16L373.92-22.16Z M401.92-22.08Q404.84-22.08 407.14-20.70Q409.44-19.32 410.72-16.88Q412.00-14.44 412.00-11.32L412.00-11.32Q412.00-10.80 411.68-10.50Q411.36-10.20 410.84-10.20L410.84-10.20L394.08-10.20Q394.20-7.84 395.32-5.98Q396.44-4.12 398.32-3.08Q400.20-2.04 402.52-2.04L402.52-2.04Q404.08-2.04 405.66-2.58Q407.24-3.12 408.16-4L408.16-4Q408.56-4.32 409.00-4.32L409.00-4.32Q409.44-4.32 409.72-4.08L409.72-4.08Q410.16-3.72 410.16-3.24L410.16-3.24Q410.16-2.84 409.80-2.48L409.80-2.48Q408.52-1.32 406.46-0.56Q404.40 0.20 402.52 0.20L402.52 0.20Q399.36 0.20 396.90-1.22Q394.44-2.64 393.04-5.18Q391.64-7.72 391.64-10.92L391.64-10.92Q391.64-14.16 392.94-16.70Q394.24-19.24 396.58-20.66Q398.92-22.08 401.92-22.08L401.92-22.08ZM401.92-19.84Q398.80-19.84 396.66-17.76Q394.52-15.68 394.12-12.28L394.12-12.28L409.68-12.28Q409.40-15.68 407.28-17.76Q405.16-19.84 401.92-19.84L401.92-19.84Z"/></g>
</svg>
</g><g opacity="1" transform="rotate(0 487 289.7948)">
<svg width="76" height="93.5636" x="487" y="289.7948" version="1.1" preserveAspectRatio="none" viewBox="0.8297876119613647 0.4436093270778656 3.3412342071533203 4.113390922546387">
  <g transform="matrix(1 0 0 1 0 0)" class="aLgOaV3zRcolors-0"><g><g><path fill-rule="evenodd" clip-rule="evenodd" d="M3.698,3.295c0.079-0.09,0.152-0.2,0.151-0.303c0-0.081-0.037-0.226-0.15-0.21    C3.57,2.801,3.48,2.889,3.46,3.018C3.446,3.092,3.483,3.164,3.533,3.223C3.401,3.36,3.252,3.472,3.087,3.562    C2.752,3.744,2.404,3.765,2.043,3.659C1.741,3.574,1.327,3.141,1.419,2.8c1.233,0.187,1.796,0.011,1.906-0.073    c0.174-0.131-0.191-0.21-0.424-0.224c-0.565-0.028-0.85,0.009-1.026,0.043c-0.004,0.002,0,0.008,0,0.006    c0-0.006,0.732-0.006,1.049,0.03c0.131,0.014,0.309,0.069,0.24,0.104c-0.077,0.037-0.237,0.103-0.768,0.1    C1.867,2.781,1.389,2.638,1.389,2.638S1.338,2.689,1.316,2.734c-0.15,0.31,0.017,0.653,0.248,0.853    c0.266,0.229,0.667,0.451,1.01,0.437c0.391-0.021,0.742-0.354,1.019-0.62c0.021-0.019,0.045-0.043,0.07-0.071    c0.162,0.105,0.491,0.202,0.46,0.43C4.088,4.028,3.479,4.307,2.39,4.352C1.604,4.385,0.834,4.178,0.877,3.697    c0.001-0.012-0.095,0.156-0.016,0.313c0.093,0.176,0.489,0.547,1.473,0.547c1.236,0,1.83-0.477,1.837-0.79    C4.174,3.52,3.864,3.427,3.698,3.295z M3.58,3.173C3.54,3.109,3.532,3.038,3.556,2.955c0.058-0.129,0.223-0.113,0.171,0.007    C3.69,3.038,3.637,3.107,3.58,3.173z"></path></g><path fill-rule="evenodd" clip-rule="evenodd" d="M2.758,1.983C2.582,1.926,1.993,1.954,2.052,1.658   c0.032-0.165,0.213-0.22,0.341-0.291c0.099-0.054,0.199-0.122,0.26-0.219c0.155-0.247,0.065-0.473-0.087-0.697   C2.554,0.434,2.528,0.449,2.537,0.469C2.674,0.78,2.591,1.045,2.299,1.215C2.154,1.297,1.955,1.454,1.954,1.646   c0,0.17,0.136,0.259,0.285,0.305c0.222,0.064,0.809,0.024,0.573,0.426C2.801,2.397,3.065,2.083,2.758,1.983z"></path></g></g>
</svg>
</g></svg>